<svg width="16" height="16" viewBox="0 0 16 16" fill="none" xmlns="http://www.w3.org/2000/svg">
<path d="M12.6667 9.8667C12.6667 9.29577 12.6664 8.90761 12.6419 8.60758C12.618 8.31531 12.5746 8.16563 12.5215 8.06136C12.3937 7.81053 12.1896 7.6065 11.9388 7.47868C11.8345 7.42555 11.6849 7.38212 11.3926 7.35824C11.0926 7.33373 10.7044 7.3335 10.1335 7.3335H5.86654C5.29561 7.3335 4.90745 7.33373 4.60742 7.35824C4.31515 7.38212 4.16547 7.42555 4.0612 7.47868C3.81036 7.6065 3.60634 7.81053 3.47852 8.06136C3.42539 8.16563 3.38195 8.31531 3.35807 8.60758C3.33357 8.90761 3.33333 9.29577 3.33333 9.8667V10.8003L3.33659 11.5314C3.33978 11.7373 3.34582 11.9094 3.35807 12.0594C3.38195 12.3517 3.42539 12.5014 3.47852 12.6056C3.60634 12.8565 3.81036 13.0605 4.0612 13.1883C4.16547 13.2414 4.31515 13.2849 4.60742 13.3088C4.90745 13.3333 5.29561 13.3335 5.86654 13.3335H10.1335C10.7044 13.3335 11.0926 13.3333 11.3926 13.3088C11.6849 13.2849 11.8345 13.2414 11.9388 13.1883C12.1896 13.0605 12.3937 12.8565 12.5215 12.6056C12.5746 12.5014 12.618 12.3517 12.6419 12.0594C12.6664 11.7594 12.6667 11.3712 12.6667 10.8003V9.8667ZM7.33333 11.0002V9.66683C7.33333 9.29864 7.63181 9.00016 8 9.00016C8.36819 9.00016 8.66667 9.29864 8.66667 9.66683V11.0002C8.66667 11.3684 8.36819 11.6668 8 11.6668C7.63181 11.6668 7.33333 11.3684 7.33333 11.0002ZM10.6667 5.3335C10.6667 3.86074 9.47276 2.66683 8 2.66683C6.52724 2.66683 5.33333 3.86074 5.33333 5.3335V6.00212C5.49988 6.00097 5.67744 6.00016 5.86654 6.00016H10.1335C10.3226 6.00016 10.5001 6.00097 10.6667 6.00212V5.3335ZM12 6.10107C12.1884 6.14236 12.3696 6.20152 12.5443 6.29053C13.0459 6.54617 13.454 6.95422 13.7096 7.45589C13.8745 7.77943 13.9401 8.12416 13.9707 8.49886C14.0007 8.86578 14 9.31771 14 9.8667V10.8003C14 11.3493 14.0007 11.8012 13.9707 12.1681C13.9401 12.5428 13.8745 12.8876 13.7096 13.2111C13.454 13.7128 13.0459 14.1208 12.5443 14.3765C12.2207 14.5413 11.876 14.6069 11.5013 14.6375C11.1344 14.6675 10.6825 14.6668 10.1335 14.6668H5.86654C5.31754 14.6668 4.86562 14.6675 4.4987 14.6375C4.124 14.6069 3.77927 14.5413 3.45573 14.3765C2.95406 14.1208 2.54601 13.7128 2.29037 13.2111C2.12552 12.8876 2.05992 12.5428 2.0293 12.1681C2.0143 11.9846 2.00687 11.7798 2.00326 11.5522L2 10.8003V9.8667C2 9.31771 1.99932 8.86578 2.0293 8.49886C2.05992 8.12416 2.12552 7.77943 2.29037 7.45589C2.54601 6.95422 2.95406 6.54617 3.45573 6.29053C3.63042 6.20152 3.81165 6.14236 4 6.10107V5.3335C4 3.12436 5.79086 1.3335 8 1.3335C10.2091 1.3335 12 3.12436 12 5.3335V6.10107Z" fill="currentColor"/>
</svg>
